<svg version="1.1" id="Layer_1" xmlns="http://www.w3.org/2000/svg" xmlns:xlink="http://www.w3.org/1999/xlink" x="0px" y="0px"
	 width="100%" viewBox="0 0 6912 3456" enable-background="new 0 0 6912 3456" xml:space="preserve">
<path fill="#FF8500" opacity="1.000000" stroke="none" 
	d="
M1840.000000,4.000002 
	C3531.800049,4.000000 5223.600098,4.000000 6915.700195,4.000000 
	C6915.700195,1155.663940 6915.700195,2307.327881 6915.700195,3460.000000 
	C5225.202637,3460.000000 3534.404785,3460.000000 1841.074707,3458.257812 
	C1838.400146,3447.190674 1838.133179,3437.865479 1838.133057,3428.540527 
	C1838.114380,2297.587402 1838.115601,1166.634277 1838.117554,35.681065 
	C1838.117676,28.350290 1837.964966,21.012651 1838.243164,13.691883 
	C1838.366577,10.443697 1839.386841,7.229584 1840.000000,4.000002 
M3979.063232,1554.812744 
	C3975.239258,1555.324707 3971.415527,1555.836792 3967.245361,1556.395142 
	C3964.576660,1565.536011 3965.632324,1574.224609 3965.631348,1582.767456 
	C3965.578369,2014.676392 3965.584229,2446.585205 3965.585693,2878.494141 
	C3965.585938,2883.826172 3965.310303,2889.181641 3965.721680,2894.482666 
	C3966.014648,2898.258789 3967.245850,2901.962402 3968.300537,2906.812744 
	C3976.292480,2906.812744 3983.567871,2906.812988 3990.843018,2906.812744 
	C4141.478027,2906.812256 4292.112793,2906.807129 4442.747559,2906.814453 
	C4484.091309,2906.816406 4525.314453,2904.828857 4566.480469,2900.772705 
	C4626.382324,2894.870850 4685.020508,2883.200928 4742.083496,2863.976318 
	C4816.242188,2838.992432 4883.324219,2801.682617 4941.268555,2748.683594 
	C5008.702148,2687.005859 5054.658691,2611.510742 5084.321289,2525.600342 
	C5113.753418,2440.356689 5125.492188,2352.142822 5127.813477,2262.448242 
	C5129.246582,2207.097656 5127.256836,2151.877441 5120.517090,2096.822021 
	C5112.712402,2033.062256 5098.971680,1970.792725 5075.564941,1910.899170 
	C5026.154297,1784.464355 4941.434570,1689.926758 4819.613770,1629.247437 
	C4739.215820,1589.200928 4653.291992,1569.499634 4564.549805,1559.999146 
	C4522.043457,1555.448364 4479.420898,1554.842285 4436.763184,1554.824341 
	C4285.461914,1554.760864 4134.160645,1554.800537 3979.063232,1554.812744 
M6041.020996,2586.107666 
	C6025.764160,2628.054932 5996.374512,2656.362793 5955.969727,2673.892822 
	C5932.545898,2684.055664 5907.848145,2689.264893 5882.577148,2692.188477 
	C5849.318848,2696.036377 5816.105469,2695.505127 5782.815918,2692.341797 
	C5722.309570,2686.592773 5665.136230,2670.236816 5612.412109,2639.580566 
	C5556.935059,2607.323730 5510.175781,2565.292969 5471.986328,2513.687256 
	C5467.712891,2507.911377 5464.852051,2500.766602 5457.856445,2497.270996 
	C5451.175293,2497.270996 5444.566895,2497.270996 5436.587891,2497.270996 
	C5435.343750,2498.899414 5433.783203,2501.063965 5432.098633,2503.126953 
	C5385.729004,2559.889648 5339.345703,2616.641113 5292.984375,2673.410889 
	C5292.582520,2673.903076 5292.370117,2674.593506 5292.208984,2675.227051 
	C5292.046387,2675.865479 5292.057129,2676.547852 5291.818359,2678.979736 
	C5295.676270,2685.032959 5300.083984,2692.428711 5304.951172,2699.508789 
	C5337.862793,2747.388672 5379.484375,2786.453125 5427.688965,2818.421143 
	C5495.190430,2863.187012 5569.832031,2890.900635 5648.600586,2907.939941 
	C5720.664551,2923.528809 5793.752441,2927.333252 5867.259766,2925.257568 
	C5907.967773,2924.107910 5948.356445,2919.958496 5988.292969,2911.876709 
	C6044.222168,2900.558105 6097.288086,2881.699951 6146.281250,2851.984131 
	C6215.965820,2809.718750 6266.746094,2751.163818 6294.886719,2674.664307 
	C6332.211914,2573.197998 6334.634277,2469.979004 6302.789551,2366.692139 
	C6285.573242,2310.850830 6254.328125,2263.138184 6210.587891,2224.010986 
	C6183.085938,2199.409668 6152.231445,2179.828125 6119.166992,2163.582275 
	C6065.605469,2137.265869 6008.991211,2120.191650 5950.815918,2107.884521 
	C5887.623047,2094.515381 5824.323242,2081.641846 5761.197754,2067.963623 
	C5727.272461,2060.612305 5694.349609,2050.102295 5663.662598,2033.268799 
	C5621.199219,2009.975342 5597.563965,1974.359253 5593.185059,1926.276489 
	C5588.118652,1870.656616 5608.527344,1827.255737 5656.827637,1798.100586 
	C5665.901367,1792.623779 5675.702637,1788.201416 5685.515137,1784.129883 
	C5705.932617,1775.658813 5727.426758,1771.042969 5749.247559,1767.994751 
	C5797.095703,1761.310791 5844.974609,1762.010132 5892.709473,1768.763184 
	C5975.752441,1780.511353 6047.950684,1814.779541 6107.949219,1873.883179 
	C6111.240234,1877.125366 6114.706055,1880.191040 6118.155273,1883.398804 
	C6126.353516,1883.590820 6134.279297,1885.114990 6141.545410,1882.130859 
	C6184.816406,1826.850464 6263.592773,1717.245850 6271.440918,1701.231934 
	C6247.664062,1674.343506 6220.461426,1651.020752 6190.642578,1630.653198 
	C6118.649902,1581.478882 6038.013672,1556.028320 5952.524414,1543.877686 
	C5892.935547,1535.408447 5833.025879,1533.932617 5773.005371,1536.208374 
	C5725.612305,1538.005493 5678.766602,1544.411011 5632.851074,1556.469971 
	C5570.347168,1572.885376 5512.145996,1598.566650 5461.231934,1639.047485 
	C5397.253418,1689.915527 5357.014160,1755.595947 5339.448242,1835.390381 
	C5329.737793,1879.500000 5329.243164,1924.057251 5333.201172,1968.659790 
	C5336.632324,2007.327393 5345.786133,2044.845947 5361.337402,2080.598633 
	C5390.535156,2147.724609 5438.501953,2198.060303 5500.469238,2235.813721 
	C5548.645996,2265.165527 5600.527344,2286.008545 5655.005859,2299.722168 
	C5717.628906,2315.486328 5780.714355,2329.421143 5843.646973,2343.941406 
	C5879.371094,2352.183594 5914.853027,2361.121338 5948.659668,2375.676025 
	C5968.960449,2384.416504 5988.127930,2395.019287 6004.982910,2409.488770 
	C6024.219238,2426.003174 6037.563965,2446.311035 6044.202148,2470.848633 
	C6054.378418,2508.461670 6053.869629,2545.917236 6041.020996,2586.107666 
M3346.308350,2109.998535 
	C3346.566650,2373.825439 3346.822510,2637.652100 3347.168457,2901.479004 
	C3347.169922,2902.574951 3348.454590,2903.669678 3349.720215,2905.692383 
	C3352.255859,2905.995361 3355.469971,2906.713135 3358.684814,2906.715088 
	C3439.973633,2906.765381 3521.262207,2906.763428 3602.550781,2906.641357 
	C3605.634277,2906.636719 3608.715820,2905.342529 3612.811279,2904.421387 
	C3612.930420,2895.831787 3613.136475,2887.906494 3613.136963,2879.981201 
	C3613.152344,2446.884277 3613.150146,2013.787231 3613.149170,1580.690308 
	C3613.149170,1576.026245 3613.412842,1571.339111 3613.033203,1566.705322 
	C3612.727295,1562.969849 3611.633789,1559.298828 3610.952393,1555.909424 
	C3578.690430,1553.346069 3363.789062,1554.302612 3348.644531,1556.977173 
	C3348.056885,1558.096191 3346.955566,1559.214478 3346.953857,1560.334229 
	C3346.687012,1742.222168 3346.499268,1924.110229 3346.308350,2109.998535 
z"/>
<path fill="#FF8500" opacity="1.000000" stroke="none" 
	d="
M1108.000000,3460.000000 
	C740.111267,3460.000000 372.222534,3460.000000 4.166911,3460.000000 
	C4.166911,2308.459717 4.166911,1156.919189 4.166911,4.000000 
	C370.761841,4.000000 737.525391,4.000000 1106.245117,5.861857 
	C1108.215210,10.388891 1108.241211,13.054067 1108.241211,15.719242 
	C1108.243408,1157.817749 1108.244263,2299.916260 1108.234131,3442.014648 
	C1108.234131,3448.009766 1108.081421,3454.004883 1108.000000,3460.000000 
z"/>
<path fill="#010000" opacity="1.000000" stroke="none" 
	d="
M1109.864258,3460.000000 
	C1108.081421,3454.004883 1108.234131,3448.009766 1108.234131,3442.014648 
	C1108.244263,2299.916260 1108.243408,1157.817749 1108.241211,15.719242 
	C1108.241211,13.054067 1108.215210,10.388891 1108.100586,5.861857 
	C1350.757202,4.000000 1593.514526,4.000000 1838.135864,4.000002 
	C1839.386841,7.229584 1838.366577,10.443697 1838.243164,13.691883 
	C1837.964966,21.012651 1838.117676,28.350290 1838.117554,35.681065 
	C1838.115601,1166.634277 1838.114380,2297.587402 1838.133057,3428.540527 
	C1838.133179,3437.865479 1838.400146,3447.190674 1839.271240,3458.257812 
	C1597.242798,3460.000000 1354.485474,3460.000000 1109.864258,3460.000000 
z"/>
<path fill="#FFFEFD" opacity="1.000000" stroke="none" 
	d="
M3980.961182,1554.807007 
	C4134.160645,1554.800537 4285.461914,1554.760864 4436.763184,1554.824341 
	C4479.420898,1554.842285 4522.043457,1555.448364 4564.549805,1559.999146 
	C4653.291992,1569.499634 4739.215820,1589.200928 4819.613770,1629.247437 
	C4941.434570,1689.926758 5026.154297,1784.464355 5075.564941,1910.899170 
	C5098.971680,1970.792725 5112.712402,2033.062256 5120.517090,2096.822021 
	C5127.256836,2151.877441 5129.246582,2207.097656 5127.813477,2262.448242 
	C5125.492188,2352.142822 5113.753418,2440.356689 5084.321289,2525.600342 
	C5054.658691,2611.510742 5008.702148,2687.005859 4941.268555,2748.683594 
	C4883.324219,2801.682617 4816.242188,2838.992432 4742.083496,2863.976318 
	C4685.020508,2883.200928 4626.382324,2894.870850 4566.480469,2900.772705 
	C4525.314453,2904.828857 4484.091309,2906.816406 4442.747559,2906.814453 
	C4292.112793,2906.807129 4141.478027,2906.812256 3990.843018,2906.812744 
	C3983.567871,2906.812988 3976.292480,2906.812744 3968.300537,2906.812744 
	C3967.245850,2901.962402 3966.014648,2898.258789 3965.721680,2894.482666 
	C3965.310303,2889.181641 3965.585938,2883.826172 3965.585693,2878.494141 
	C3965.584229,2446.585205 3965.578369,2014.676392 3965.631348,1582.767456 
	C3965.632324,1574.224609 3964.576660,1565.536011 3967.245361,1556.395142 
	C3971.415527,1555.836792 3975.239258,1555.324707 3980.961182,1554.807007 
M4481.469238,2680.274658 
	C4522.877930,2678.117432 4563.608398,2671.761719 4603.398438,2659.993896 
	C4645.303223,2647.600586 4684.120605,2628.963379 4718.770020,2602.039307 
	C4767.704102,2564.016113 4799.487305,2514.109619 4819.888184,2456.318359 
	C4840.035645,2399.247070 4848.584961,2340.005127 4851.382324,2279.907715 
	C4853.645996,2231.288574 4853.295898,2182.623291 4847.865723,2134.139648 
	C4842.661133,2087.662354 4833.612793,2042.093994 4817.406250,1998.019653 
	C4782.735352,1903.734375 4717.535156,1840.888794 4623.168945,1807.558350 
	C4574.992676,1790.542114 4525.180664,1781.475220 4474.354004,1780.502441 
	C4398.399414,1779.048584 4322.405273,1779.703979 4246.427734,1779.543335 
	C4242.595703,1779.535156 4238.761719,1780.294312 4234.479492,1780.743408 
	C4231.853027,1789.284546 4232.865723,1797.286499 4232.864258,1805.125488 
	C4232.807617,2088.382812 4232.815918,2371.640137 4232.816895,2654.897461 
	C4232.816895,2659.562988 4232.567871,2664.248291 4232.918945,2668.887695 
	C4233.204102,2672.654053 4234.217773,2676.365479 4234.951660,2680.337402 
	C4239.136719,2680.798828 4242.403809,2681.483398 4245.668457,2681.470947 
	C4322.975586,2681.172852 4400.282227,2680.800049 4481.469238,2680.274658 
z"/>
<path fill="#FFFEFE" opacity="1.000000" stroke="none" 
	d="
M6041.623535,2584.634521 
	C6053.869629,2545.917236 6054.378418,2508.461670 6044.202148,2470.848633 
	C6037.563965,2446.311035 6024.219238,2426.003174 6004.982910,2409.488770 
	C5988.127930,2395.019287 5968.960449,2384.416504 5948.659668,2375.676025 
	C5914.853027,2361.121338 5879.371094,2352.183594 5843.646973,2343.941406 
	C5780.714355,2329.421143 5717.628906,2315.486328 5655.005859,2299.722168 
	C5600.527344,2286.008545 5548.645996,2265.165527 5500.469238,2235.813721 
	C5438.501953,2198.060303 5390.535156,2147.724609 5361.337402,2080.598633 
	C5345.786133,2044.845947 5336.632324,2007.327393 5333.201172,1968.659790 
	C5329.243164,1924.057251 5329.737793,1879.500000 5339.448242,1835.390381 
	C5357.014160,1755.595947 5397.253418,1689.915527 5461.231934,1639.047485 
	C5512.145996,1598.566650 5570.347168,1572.885376 5632.851074,1556.469971 
	C5678.766602,1544.411011 5725.612305,1538.005493 5773.005371,1536.208374 
	C5833.025879,1533.932617 5892.935547,1535.408447 5952.524414,1543.877686 
	C6038.013672,1556.028320 6118.649902,1581.478882 6190.642578,1630.653198 
	C6220.461426,1651.020752 6247.664062,1674.343506 6271.440918,1701.231934 
	C6263.592773,1717.245850 6184.816406,1826.850464 6141.545410,1882.130859 
	C6134.279297,1885.114990 6126.353516,1883.590820 6118.155273,1883.398804 
	C6114.706055,1880.191040 6111.240234,1877.125366 6107.949219,1873.883179 
	C6047.950684,1814.779541 5975.752441,1780.511353 5892.709473,1768.763184 
	C5844.974609,1762.010132 5797.095703,1761.310791 5749.247559,1767.994751 
	C5727.426758,1771.042969 5705.932617,1775.658813 5685.515137,1784.129883 
	C5675.702637,1788.201416 5665.901367,1792.623779 5656.827637,1798.100586 
	C5608.527344,1827.255737 5588.118652,1870.656616 5593.185059,1926.276489 
	C5597.563965,1974.359253 5621.199219,2009.975342 5663.662598,2033.268799 
	C5694.349609,2050.102295 5727.272461,2060.612305 5761.197754,2067.963623 
	C5824.323242,2081.641846 5887.623047,2094.515381 5950.815918,2107.884521 
	C6008.991211,2120.191650 6065.605469,2137.265869 6119.166992,2163.582275 
	C6152.231445,2179.828125 6183.085938,2199.409668 6210.587891,2224.010986 
	C6254.328125,2263.138184 6285.573242,2310.850830 6302.789551,2366.692139 
	C6334.634277,2469.979004 6332.211914,2573.197998 6294.886719,2674.664307 
	C6266.746094,2751.163818 6215.965820,2809.718750 6146.281250,2851.984131 
	C6097.288086,2881.699951 6044.222168,2900.558105 5988.292969,2911.876709 
	C5948.356445,2919.958496 5907.967773,2924.107910 5867.259766,2925.257568 
	C5793.752441,2927.333252 5720.664551,2923.528809 5648.600586,2907.939941 
	C5569.832031,2890.900635 5495.190430,2863.187012 5427.688965,2818.421143 
	C5379.484375,2786.453125 5337.862793,2747.388672 5304.951172,2699.508789 
	C5300.083984,2692.428711 5295.676270,2685.032959 5291.818359,2678.979736 
	C5292.057129,2676.547852 5292.046387,2675.865479 5292.208984,2675.227051 
	C5292.370117,2674.593506 5292.582520,2673.903076 5292.984375,2673.410889 
	C5339.345703,2616.641113 5385.729004,2559.889648 5432.098633,2503.126953 
	C5433.783203,2501.063965 5435.343750,2498.899414 5436.587891,2497.270996 
	C5444.566895,2497.270996 5451.175293,2497.270996 5457.856445,2497.270996 
	C5464.852051,2500.766602 5467.712891,2507.911377 5471.986328,2513.687256 
	C5510.175781,2565.292969 5556.935059,2607.323730 5612.412109,2639.580566 
	C5665.136230,2670.236816 5722.309570,2686.592773 5782.815918,2692.341797 
	C5816.105469,2695.505127 5849.318848,2696.036377 5882.577148,2692.188477 
	C5907.848145,2689.264893 5932.545898,2684.055664 5955.969727,2673.892822 
	C5996.374512,2656.362793 6025.764160,2628.054932 6041.623535,2584.634521 
z"/>
<path fill="#FFFFFF" opacity="1.000000" stroke="none" 
	d="
M3346.308350,2107.998535 
	C3346.499268,1924.110229 3346.687012,1742.222168 3346.953857,1560.334229 
	C3346.955566,1559.214478 3348.056885,1558.096191 3348.646973,1556.978394 
	C3363.789062,1554.302612 3578.690430,1553.346069 3610.952393,1555.909424 
	C3611.633789,1559.298828 3612.727295,1562.969849 3613.033203,1566.705322 
	C3613.412842,1571.339111 3613.149170,1576.026245 3613.149170,1580.690308 
	C3613.150146,2013.787231 3613.152344,2446.884277 3613.136963,2879.981201 
	C3613.136475,2887.906494 3612.930420,2895.831787 3612.811279,2904.421387 
	C3608.715820,2905.342529 3605.634277,2906.636719 3602.550781,2906.641357 
	C3521.262207,2906.763428 3439.973633,2906.765381 3358.684814,2906.715088 
	C3355.469971,2906.713135 3352.255859,2905.995361 3349.720215,2905.692383 
	C3348.454590,2903.669678 3347.169922,2902.574951 3347.168457,2901.479004 
	C3346.822510,2637.652100 3346.566650,2373.825439 3346.308350,2107.998535 
z"/>
<path fill="#FF8501" opacity="1.000000" stroke="none" 
	d="
M4479.529297,2680.357666 
	C4400.282227,2680.800049 4322.975586,2681.172852 4245.668457,2681.470947 
	C4242.403809,2681.483398 4239.136719,2680.798828 4234.951660,2680.337402 
	C4234.217773,2676.365479 4233.204102,2672.654053 4232.918945,2668.887695 
	C4232.567871,2664.248291 4232.816895,2659.562988 4232.816895,2654.897461 
	C4232.815918,2371.640137 4232.807617,2088.382812 4232.864258,1805.125488 
	C4232.865723,1797.286499 4231.853027,1789.284546 4234.479492,1780.743408 
	C4238.761719,1780.294312 4242.595703,1779.535156 4246.427734,1779.543335 
	C4322.405273,1779.703979 4398.399414,1779.048584 4474.354004,1780.502441 
	C4525.180664,1781.475220 4574.992676,1790.542114 4623.168945,1807.558350 
	C4717.535156,1840.888794 4782.735352,1903.734375 4817.406250,1998.019653 
	C4833.612793,2042.093994 4842.661133,2087.662354 4847.865723,2134.139648 
	C4853.295898,2182.623291 4853.645996,2231.288574 4851.382324,2279.907715 
	C4848.584961,2340.005127 4840.035645,2399.247070 4819.888184,2456.318359 
	C4799.487305,2514.109619 4767.704102,2564.016113 4718.770020,2602.039307 
	C4684.120605,2628.963379 4645.303223,2647.600586 4603.398438,2659.993896 
	C4563.608398,2671.761719 4522.877930,2678.117432 4479.529297,2680.357666 
z"/>
</svg>